<svg width="24" height="24" viewBox="0 0 24 24" fill="none" xmlns="http://www.w3.org/2000/svg">
<path d="M12 0C5.37333 0 0 5.37333 0 12C0 18.6267 5.37333 24 12 24C13.1067 24 14 23.1067 14 22C14 21.48 13.8 21.0133 13.48 20.6533C13.1733 20.3067 12.9733 19.84 12.9733 19.3333C12.9733 18.2267 13.8667 17.3333 14.9733 17.3333H17.3333C21.0133 17.3333 24 14.3467 24 10.6667C24 4.77333 18.6267 0 12 0ZM4.66667 12C3.56 12 2.66667 11.1067 2.66667 10C2.66667 8.89333 3.56 8 4.66667 8C5.77333 8 6.66667 8.89333 6.66667 10C6.66667 11.1067 5.77333 12 4.66667 12ZM8.66667 6.66667C7.56 6.66667 6.66667 5.77333 6.66667 4.66667C6.66667 3.56 7.56 2.66667 8.66667 2.66667C9.77333 2.66667 10.6667 3.56 10.6667 4.66667C10.6667 5.77333 9.77333 6.66667 8.66667 6.66667ZM15.3333 6.66667C14.2267 6.66667 13.3333 5.77333 13.3333 4.66667C13.3333 3.56 14.2267 2.66667 15.3333 2.66667C16.44 2.66667 17.3333 3.56 17.3333 4.66667C17.3333 5.77333 16.44 6.66667 15.3333 6.66667ZM19.3333 12C18.2267 12 17.3333 11.1067 17.3333 10C17.3333 8.89333 18.2267 8 19.3333 8C20.44 8 21.3333 8.89333 21.3333 10C21.3333 11.1067 20.44 12 19.3333 12Z" fill="black"/>
</svg>
