<svg width="58" height="33" viewBox="0 0 58 33" fill="none" xmlns="http://www.w3.org/2000/svg">
<path d="M0.515869 0.866046H17.1673C19.0024 0.866046 20.6269 1.22916 22.0409 1.9554C23.4548 2.65138 24.5529 3.66508 25.3351 4.99652C26.1173 6.29769 26.5083 7.79556 26.5083 9.49011V13.7114C26.5083 15.4664 26.1022 17.0248 25.2899 18.3865C24.4777 19.7179 23.3345 20.7619 21.8604 21.5184C20.4164 22.2446 18.7317 22.6078 16.8063 22.6078H6.74323V32.6389H0.515869V0.866046ZM16.716 17.161C17.769 17.161 18.6264 16.8281 19.2882 16.1624C19.9501 15.4664 20.281 14.5586 20.281 13.439V9.76245C20.281 8.70335 19.9801 7.87121 19.3785 7.26601C18.8069 6.63055 18.0397 6.31282 17.077 6.31282H6.74323V17.161H16.716Z" fill="#FBF503"/>
<path d="M40.6934 33.002C38.3769 33.002 36.3312 32.5027 34.5563 31.5042C32.8114 30.5056 31.4576 29.0985 30.4949 27.2829C29.5322 25.4371 29.0509 23.3189 29.0509 20.9283V12.5766C29.0509 10.1861 29.5322 8.08302 30.4949 6.26743C31.4877 4.42158 32.8716 2.99937 34.6465 2.00079C36.4515 1.00222 38.5273 0.50293 40.8739 0.50293H45.6572C47.9135 0.50293 49.899 0.987087 51.6138 1.9554C53.3286 2.92372 54.6523 4.28541 55.5849 6.04048C56.5476 7.7653 57.0289 9.77758 57.0289 12.0773H50.8918C50.8918 10.2617 50.4105 8.80926 49.4478 7.71991C48.4851 6.60029 47.2216 6.04048 45.6572 6.04048H40.8739C39.1892 6.04048 37.8354 6.67594 36.8125 7.94686C35.7897 9.18751 35.2783 10.8215 35.2783 12.849V20.656C35.2783 22.6834 35.7747 24.3326 36.7674 25.6035C37.7602 26.8441 39.0688 27.4645 40.6934 27.4645H45.567C47.1614 27.4645 48.455 26.8441 49.4478 25.6035C50.4706 24.3628 50.9821 22.7288 50.9821 20.7014H57.1192C57.1192 23.1524 56.6378 25.316 55.6751 27.1921C54.7125 29.038 53.3587 30.4753 51.6138 31.5042C49.8689 32.5027 47.8533 33.002 45.567 33.002H40.6934Z" fill="#FBF503"/>
</svg>
