<svg width="28" height="28" viewBox="0 0 28 28" fill="none" xmlns="http://www.w3.org/2000/svg">
<path d="M16.6666 0.666748H3.33329C1.85329 0.666748 0.666626 1.86675 0.666626 3.33341V16.6667H3.33329V3.33341H16.6666V0.666748ZM22 6.00008H8.66663C7.18663 6.00008 5.99996 7.20008 5.99996 8.66675V22.0001H8.66663V8.66675H22V6.00008ZM24.6666 11.3334H14C12.52 11.3334 11.3333 12.5334 11.3333 14.0001V24.6667C11.3333 26.1334 12.52 27.3334 14 27.3334H24.6666C26.1333 27.3334 27.3333 26.1334 27.3333 24.6667V14.0001C27.3333 12.5334 26.1333 11.3334 24.6666 11.3334Z" fill="black"/>
</svg>
